<svg xmlns="http://www.w3.org/2000/svg" viewBox="0 0 237.5 237.5">
	<path d="M193.56 43.98c19.14 19.14 30.98 45.58 30.98 74.79 0 29.21-11.84 55.65-30.98 74.79s-45.58 30.98-74.79 30.98-55.65-11.84-74.79-30.98C24.84 174.42 13 147.98 13 118.77S24.84 63.12 43.98 43.98C63.12 24.84 89.56 13 118.77 13s55.65 11.84 74.79 30.98ZM109.06 60.2h-0v63.7c0 2.52 1.44 4.71 3.55 5.79l47.99 28.45c3.09 1.82 7.07.79 8.89-2.29 1.82-3.09.79-7.07-2.29-8.89L122.06 120.2v-60c0-3.59-2.91-6.5-6.5-6.5s-6.5 2.91-6.5 6.5ZM118.77 0C85.97 0 56.28 13.29 34.79 34.79 13.29 56.28 0 85.98 0 118.77s13.29 62.49 34.79 83.98c21.49 21.5 51.18 34.79 83.98 34.79 32.79 0 62.49-13.3 83.98-34.79 21.5-21.49 34.79-51.19 34.79-83.98s-13.3-62.49-34.79-83.98C181.26 13.29 151.57 0 118.77 0Z" fill="#e11d48"/>
</svg>